<!--?xml version="1.0" standalone="no"?-->
              <svg id="sw-js-blob-svg" viewBox="0 0 100 100" xmlns="http://www.w3.org/2000/svg" version="1.1">
                    <defs> 
                        <linearGradient id="sw-gradient" x1="0" x2="1" y1="1" y2="0">
                            <stop id="stop1" stop-color="rgba(86, 177, 215, 1)" offset="0%"></stop>
                            <stop id="stop2" stop-color="rgba(77.203, 140.225, 225.793, 1)" offset="100%"></stop>
                        </linearGradient>
                    </defs>
                <path fill="url(#sw-gradient)" d="M20.8,-25C27.9,-23.5,35.2,-18.6,36.2,-12.5C37.2,-6.3,31.9,1.2,26.6,6C21.4,10.8,16.2,13,11.8,16.9C7.4,20.8,3.7,26.3,-0.4,26.9C-4.5,27.4,-9,23,-16.3,20.1C-23.6,17.1,-33.8,15.7,-37.2,10.8C-40.6,5.9,-37.2,-2.6,-31.4,-7C-25.6,-11.4,-17.2,-11.9,-11.6,-13.9C-6,-15.9,-3,-19.6,1.9,-22.3C6.9,-25,13.7,-26.6,20.8,-25Z" width="100%" height="100%" transform="translate(50 50)" stroke-width="0" style="transition: all 0.3s ease 0s;"></path>
              </svg>